<svg width="648" height="128" viewBox="0 0 648 128" fill="none" xmlns="http://www.w3.org/2000/svg">
<rect y="104" width="94" height="24" fill="#3273DC" fill-opacity="0.5"/>
<rect x="34" width="94" height="24" fill="#3273DC" fill-opacity="0.5"/>
<rect y="96" width="96" height="24" transform="rotate(-90 0 96)" fill="#3273DC"/>
<rect x="104" y="128" width="96" height="24" transform="rotate(-90 104 128)" fill="#3273DC"/>
<path d="M199.08 68.08H210.72V106.96C209.76 107.28 208.36 107.64 206.52 108.04C204.76 108.44 202.68 108.84 200.28 109.24C197.96 109.64 195.4 109.96 192.6 110.2C189.8 110.52 186.96 110.68 184.08 110.68C178.24 110.68 172.92 109.72 168.12 107.8C163.32 105.88 159.2 103.08 155.76 99.4C152.32 95.72 149.64 91.2 147.72 85.84C145.88 80.48 144.96 74.32 144.96 67.36C144.96 60.4 146 54.24 148.08 48.88C150.24 43.44 153.12 38.88 156.72 35.2C160.32 31.52 164.52 28.72 169.32 26.8C174.2 24.88 179.4 23.92 184.92 23.92C188.68 23.92 192 24.16 194.88 24.64C197.84 25.12 200.36 25.68 202.44 26.32C204.52 26.96 206.2 27.6 207.48 28.24C208.84 28.88 209.76 29.36 210.24 29.68L206.52 39.4C204.2 37.88 201.12 36.64 197.28 35.68C193.44 34.64 189.52 34.12 185.52 34.12C181.28 34.12 177.4 34.88 173.88 36.4C170.44 37.92 167.48 40.12 165 43C162.6 45.88 160.72 49.4 159.36 53.56C158 57.64 157.32 62.24 157.32 67.36C157.32 72.32 157.88 76.84 159 80.92C160.2 85 161.96 88.52 164.28 91.48C166.68 94.36 169.6 96.6 173.04 98.2C176.56 99.8 180.68 100.6 185.4 100.6C188.76 100.6 191.6 100.44 193.92 100.12C196.32 99.72 198.04 99.36 199.08 99.04V68.08ZM245.265 45.28C246.225 45.28 247.305 45.36 248.505 45.52C249.785 45.6 251.025 45.76 252.225 46C253.425 46.16 254.505 46.36 255.465 46.6C256.505 46.76 257.265 46.92 257.745 47.08L255.825 56.8C254.945 56.48 253.465 56.12 251.385 55.72C249.385 55.24 246.785 55 243.585 55C241.505 55 239.425 55.24 237.345 55.72C235.345 56.12 234.025 56.4 233.385 56.56V109H222.225V49.24C224.865 48.28 228.145 47.4 232.065 46.6C235.985 45.72 240.385 45.28 245.265 45.28ZM312.194 107.2C309.634 107.84 306.234 108.52 301.994 109.24C297.834 109.96 292.994 110.32 287.474 110.32C282.674 110.32 278.634 109.64 275.354 108.28C272.074 106.84 269.434 104.84 267.434 102.28C265.434 99.72 263.994 96.72 263.114 93.28C262.234 89.76 261.794 85.88 261.794 81.64V46.6H272.954V79.24C272.954 86.84 274.154 92.28 276.554 95.56C278.954 98.84 282.994 100.48 288.674 100.48C289.874 100.48 291.114 100.44 292.394 100.36C293.674 100.28 294.874 100.2 295.994 100.12C297.114 99.96 298.114 99.84 298.994 99.76C299.954 99.6 300.634 99.44 301.034 99.28V46.6H312.194V107.2ZM336.58 49.36C337.94 48.48 339.98 47.56 342.7 46.6C345.5 45.64 348.7 45.16 352.3 45.16C356.78 45.16 360.74 45.96 364.18 47.56C367.7 49.16 370.66 51.4 373.06 54.28C375.46 57.16 377.26 60.6 378.46 64.6C379.74 68.6 380.38 73 380.38 77.8C380.38 82.84 379.62 87.4 378.1 91.48C376.66 95.48 374.58 98.88 371.86 101.68C369.14 104.48 365.86 106.64 362.02 108.16C358.18 109.68 353.86 110.44 349.06 110.44C343.86 110.44 339.26 110.08 335.26 109.36C331.26 108.64 327.98 107.92 325.42 107.2V17.8L336.58 15.88V49.36ZM336.58 99.28C337.7 99.6 339.26 99.92 341.26 100.24C343.34 100.48 345.9 100.6 348.94 100.6C354.94 100.6 359.74 98.64 363.34 94.72C366.94 90.72 368.74 85.08 368.74 77.8C368.74 74.6 368.42 71.6 367.78 68.8C367.14 66 366.1 63.6 364.66 61.6C363.22 59.52 361.34 57.92 359.02 56.8C356.78 55.6 354.06 55 350.86 55C347.82 55 345.02 55.52 342.46 56.56C339.9 57.6 337.94 58.68 336.58 59.8V99.28ZM404.604 100.96C409.164 100.96 412.524 100.36 414.684 99.16C416.924 97.96 418.044 96.04 418.044 93.4C418.044 90.68 416.964 88.52 414.804 86.92C412.644 85.32 409.084 83.52 404.124 81.52C401.724 80.56 399.404 79.6 397.164 78.64C395.004 77.6 393.124 76.4 391.524 75.04C389.924 73.68 388.644 72.04 387.684 70.12C386.724 68.2 386.244 65.84 386.244 63.04C386.244 57.52 388.284 53.16 392.364 49.96C396.444 46.68 402.004 45.04 409.044 45.04C410.804 45.04 412.564 45.16 414.324 45.4C416.084 45.56 417.724 45.8 419.244 46.12C420.764 46.36 422.084 46.64 423.204 46.96C424.404 47.28 425.324 47.56 425.964 47.8L423.924 57.4C422.724 56.76 420.844 56.12 418.284 55.48C415.724 54.76 412.644 54.4 409.044 54.4C405.924 54.4 403.204 55.04 400.884 56.32C398.564 57.52 397.404 59.44 397.404 62.08C397.404 63.44 397.644 64.64 398.124 65.68C398.684 66.72 399.484 67.68 400.524 68.56C401.644 69.36 403.004 70.12 404.604 70.84C406.204 71.56 408.124 72.32 410.364 73.12C413.324 74.24 415.964 75.36 418.284 76.48C420.604 77.52 422.564 78.76 424.164 80.2C425.844 81.64 427.124 83.4 428.004 85.48C428.884 87.48 429.324 89.96 429.324 92.92C429.324 98.68 427.164 103.04 422.844 106C418.604 108.96 412.524 110.44 404.604 110.44C399.084 110.44 394.764 109.96 391.644 109C388.524 108.12 386.404 107.44 385.284 106.96L387.324 97.36C388.604 97.84 390.644 98.56 393.444 99.52C396.244 100.48 399.964 100.96 404.604 100.96ZM448.079 46.6H471.719V55.96H448.079V84.76C448.079 87.88 448.319 90.48 448.799 92.56C449.279 94.56 449.999 96.16 450.959 97.36C451.919 98.48 453.119 99.28 454.559 99.76C455.999 100.24 457.679 100.48 459.599 100.48C462.959 100.48 465.639 100.12 467.639 99.4C469.719 98.6 471.159 98.04 471.959 97.72L474.119 106.96C472.999 107.52 471.039 108.2 468.239 109C465.439 109.88 462.239 110.32 458.639 110.32C454.399 110.32 450.879 109.8 448.079 108.76C445.359 107.64 443.159 106 441.479 103.84C439.799 101.68 438.599 99.04 437.879 95.92C437.239 92.72 436.919 89.04 436.919 84.88V29.2L448.079 27.28V46.6ZM501.04 100.96C503.68 100.96 506 100.92 508 100.84C510.08 100.68 511.8 100.44 513.16 100.12V81.52C512.36 81.12 511.04 80.8 509.2 80.56C507.44 80.24 505.28 80.08 502.72 80.08C501.04 80.08 499.24 80.2 497.32 80.44C495.48 80.68 493.76 81.2 492.16 82C490.64 82.72 489.36 83.76 488.32 85.12C487.28 86.4 486.76 88.12 486.76 90.28C486.76 94.28 488.04 97.08 490.6 98.68C493.16 100.2 496.64 100.96 501.04 100.96ZM500.08 45.04C504.56 45.04 508.32 45.64 511.36 46.84C514.48 47.96 516.96 49.6 518.8 51.76C520.72 53.84 522.08 56.36 522.88 59.32C523.68 62.2 524.08 65.4 524.08 68.92V107.92C523.12 108.08 521.76 108.32 520 108.64C518.32 108.88 516.4 109.12 514.24 109.36C512.08 109.6 509.72 109.8 507.16 109.96C504.68 110.2 502.2 110.32 499.72 110.32C496.2 110.32 492.96 109.96 490 109.24C487.04 108.52 484.48 107.4 482.32 105.88C480.16 104.28 478.48 102.2 477.28 99.64C476.08 97.08 475.48 94 475.48 90.4C475.48 86.96 476.16 84 477.52 81.52C478.96 79.04 480.88 77.04 483.28 75.52C485.68 74 488.48 72.88 491.68 72.16C494.88 71.44 498.24 71.08 501.76 71.08C502.88 71.08 504.04 71.16 505.24 71.32C506.44 71.4 507.56 71.56 508.6 71.8C509.72 71.96 510.68 72.12 511.48 72.28C512.28 72.44 512.84 72.56 513.16 72.64V69.52C513.16 67.68 512.96 65.88 512.56 64.12C512.16 62.28 511.44 60.68 510.4 59.32C509.36 57.88 507.92 56.76 506.08 55.96C504.32 55.08 502 54.64 499.12 54.64C495.44 54.64 492.2 54.92 489.4 55.48C486.68 55.96 484.64 56.48 483.28 57.04L481.96 47.8C483.4 47.16 485.8 46.56 489.16 46C492.52 45.36 496.16 45.04 500.08 45.04ZM559.176 74.68C561.576 76.52 564.096 78.8 566.736 81.52C569.456 84.24 572.096 87.2 574.656 90.4C577.296 93.52 579.776 96.72 582.096 100C584.416 103.2 586.376 106.2 587.976 109H574.896C573.216 106.2 571.256 103.36 569.016 100.48C566.856 97.52 564.576 94.72 562.176 92.08C559.776 89.36 557.336 86.88 554.856 84.64C552.376 82.4 550.016 80.52 547.776 79V109H536.616V17.8L547.776 15.88V72.76C549.696 70.84 551.816 68.72 554.136 66.4C556.456 64.08 558.736 61.72 560.976 59.32C563.216 56.92 565.336 54.64 567.336 52.48C569.336 50.24 571.056 48.28 572.496 46.6H585.576C583.736 48.6 581.736 50.8 579.576 53.2C577.416 55.6 575.176 58.04 572.856 60.52C570.536 62.92 568.176 65.36 565.776 67.84C563.456 70.24 561.256 72.52 559.176 74.68ZM586.667 77.92C586.667 72.4 587.467 67.6 589.067 63.52C590.667 59.36 592.787 55.92 595.427 53.2C598.067 50.48 601.107 48.44 604.547 47.08C607.987 45.72 611.507 45.04 615.107 45.04C623.507 45.04 629.947 47.68 634.427 52.96C638.907 58.16 641.147 66.12 641.147 76.84C641.147 77.32 641.147 77.96 641.147 78.76C641.147 79.48 641.107 80.16 641.027 80.8H598.307C598.787 87.28 600.667 92.2 603.947 95.56C607.227 98.92 612.347 100.6 619.307 100.6C623.227 100.6 626.507 100.28 629.147 99.64C631.867 98.92 633.907 98.24 635.267 97.6L636.827 106.96C635.467 107.68 633.067 108.44 629.627 109.24C626.267 110.04 622.427 110.44 618.107 110.44C612.667 110.44 607.947 109.64 603.947 108.04C600.027 106.36 596.787 104.08 594.227 101.2C591.667 98.32 589.747 94.92 588.467 91C587.267 87 586.667 82.64 586.667 77.92ZM629.507 71.8C629.587 66.76 628.307 62.64 625.667 59.44C623.107 56.16 619.547 54.52 614.987 54.52C612.427 54.52 610.147 55.04 608.147 56.08C606.227 57.04 604.587 58.32 603.227 59.92C601.867 61.52 600.787 63.36 599.987 65.44C599.267 67.52 598.787 69.64 598.547 71.8H629.507Z" fill="#444444"/>
<path d="M635.5 20L638.306 28.6373H647.388L640.041 33.9754L642.847 42.6127L635.5 37.2746L628.153 42.6127L630.959 33.9754L623.612 28.6373H632.694L635.5 20Z" fill="#F14668"/>
</svg>
